<svg width="32" height="32" viewBox="0 0 32 32" fill="none" xmlns="http://www.w3.org/2000/svg">
<g clip-path="url(#clip0_1_551)">
<path d="M29.3337 16C29.3337 23.3637 23.3641 29.3333 16.0003 29.3333C8.63653 29.3333 2.66699 23.3637 2.66699 16C2.66699 8.63616 8.63653 2.66663 16.0003 2.66663C23.3641 2.66663 29.3337 8.63616 29.3337 16Z" fill="#B69045"/>
<path d="M16 23.6666C16.5523 23.6666 17 23.2189 17 22.6666V14.6666C17 14.1144 16.5523 13.6666 16 13.6666C15.4477 13.6666 15 14.1144 15 14.6666V22.6666C15 23.2189 15.4477 23.6666 16 23.6666Z" fill="white"/>
<path d="M16.0003 9.33337C16.7367 9.33337 17.3337 9.93032 17.3337 10.6667C17.3337 11.4031 16.7367 12 16.0003 12C15.2639 12 14.667 11.4031 14.667 10.6667C14.667 9.93032 15.2639 9.33337 16.0003 9.33337Z" fill="white"/>
</g>
<defs>
<clipPath id="clip0_1_551">
<rect width="32" height="32" fill="white"/>
</clipPath>
</defs>
</svg>
