<svg width="40" height="40" viewBox="0 0 40 40" fill="none" xmlns="http://www.w3.org/2000/svg">
<g clip-path="url(#clip0_1_1074)">
<circle cx="20" cy="20" r="20" fill="#181819"/>
<circle cx="20" cy="20" r="19.5" stroke="white" stroke-opacity="0.2"/>
<path d="M15.2929 17.2929C15.6834 16.9024 16.3166 16.9024 16.7071 17.2929L20.9497 21.5355C21.3403 21.9261 21.3403 22.5592 20.9497 22.9497C20.5592 23.3403 19.9261 23.3403 19.5355 22.9497L15.2929 18.7071C14.9024 18.3166 14.9024 17.6834 15.2929 17.2929Z" fill="white"/>
<path d="M25.364 17.2929C24.9734 16.9024 24.3403 16.9024 23.9497 17.2929L19.7071 21.5355C19.3166 21.9261 19.3166 22.5592 19.7071 22.9497C20.0976 23.3403 20.7308 23.3403 21.1213 22.9497L25.364 18.7071C25.7545 18.3166 25.7545 17.6834 25.364 17.2929Z" fill="white"/>
</g>
<defs>
<clipPath id="clip0_1_1074">
<rect width="40" height="40" fill="white"/>
</clipPath>
</defs>
</svg>
