<svg width="16" height="16" viewBox="0 0 16 16" fill="none" xmlns="http://www.w3.org/2000/svg">
<g clip-path="url(#clip0_1_205)">
<path d="M11.0611 5.01995C11.0641 5.01995 11.0681 5.01995 11.0721 5.01995C11.1766 5.01995 11.2736 5.05245 11.3531 5.10845L11.3516 5.10745C11.4096 5.15795 11.4486 5.22895 11.4581 5.30895V5.31045C11.4681 5.37145 11.4736 5.44145 11.4736 5.51295C11.4736 5.54545 11.4726 5.57745 11.4701 5.60945V5.60495C11.3576 6.78945 10.8696 9.66195 10.6216 10.988C10.5166 11.5495 10.3101 11.7375 10.1101 11.7555C9.67564 11.796 9.34564 11.4685 8.92464 11.1925C8.26564 10.76 7.89314 10.491 7.25364 10.0695C6.51414 9.58295 6.99364 9.31445 7.41464 8.87745C7.52514 8.76245 9.44064 7.01995 9.47814 6.86195C9.48014 6.85245 9.48114 6.84195 9.48114 6.83095C9.48114 6.79195 9.46664 6.75645 9.44314 6.72945C9.41714 6.71245 9.38464 6.70295 9.35064 6.70295C9.32814 6.70295 9.30664 6.70745 9.28664 6.71495L9.28764 6.71445C9.22164 6.72945 8.16897 7.42512 6.12964 8.80145C5.90714 8.97695 5.62614 9.08795 5.32014 9.10095H5.31714C4.88364 9.04845 4.49014 8.95195 4.11664 8.81445L4.15364 8.82645C3.68464 8.67345 3.31214 8.59295 3.34414 8.33395C3.36114 8.19928 3.5468 8.06145 3.90114 7.92045C6.0838 6.96945 7.5393 6.34262 8.26764 6.03995C9.07114 5.61345 10.0026 5.26245 10.9821 5.03495L11.0606 5.01945L11.0611 5.01995ZM7.96514 0.512451C3.81414 0.522451 0.452637 3.88995 0.452637 8.04245C0.452637 12.201 3.82364 15.5725 7.98264 15.5725C12.1416 15.5725 15.5126 12.2015 15.5126 8.04245C15.5126 3.88995 12.1511 0.522451 8.00114 0.512451H8.00014C7.98847 0.512451 7.9768 0.512451 7.96514 0.512451Z" fill="white"/>
</g>
<defs>
<clipPath id="clip0_1_205">
<rect width="16" height="16" fill="white"/>
</clipPath>
</defs>
</svg>
