<svg width="16" height="16" viewBox="0 0 16 16" fill="none" xmlns="http://www.w3.org/2000/svg">
<path d="M8.5 0C4.35 0 1 3.35 1 7.5C1 9.2 1.55 10.8 2.6 12.1L1.55 15.3C1.5 15.5 1.55 15.7 1.7 15.85C1.75 15.95 1.9 16 2 16C2.05 16 2.15 16 2.2 15.95L5.65 14.4C6.55 14.8 7.5 15 8.5 15C12.65 15 16 11.65 16 7.5C16 3.35 12.65 0 8.5 0ZM12.85 10.25C12.65 10.85 11.9 11.35 11.25 11.45C11.1 11.5 10.95 11.5 10.75 11.5C10.35 11.5 9.75 11.4 8.7 10.95C7.5 10.45 6.3 9.4 5.35 8.05V8C5.05 7.55 4.5 6.7 4.5 5.8C4.5 4.7 5.05 4.15 5.25 3.9C5.5 3.65 5.85 3.5 6.25 3.5C6.35 3.5 6.4 3.5 6.5 3.5C6.85 3.5 7.1 3.6 7.35 4.1L7.55 4.5C7.7 4.9 7.9 5.35 7.95 5.4C8.1 5.7 8.1 5.95 7.95 6.2C7.9 6.35 7.8 6.45 7.7 6.55C7.65 6.65 7.6 6.7 7.55 6.7C7.5 6.75 7.5 6.75 7.45 6.8C7.6 7.05 7.9 7.5 8.3 7.85C8.9 8.4 9.35 8.55 9.6 8.65C9.7 8.55 9.8 8.35 9.95 8.2L10 8.1C10.25 7.75 10.65 7.65 11.05 7.8C11.25 7.9 12.35 8.4 12.35 8.4L12.45 8.45C12.6 8.55 12.8 8.6 12.9 8.8C13.1 9.25 12.95 9.9 12.85 10.25Z" fill="white"/>
</svg>
