<svg width="17" height="17" viewBox="0 0 17 17" fill="none" xmlns="http://www.w3.org/2000/svg">
<path d="M16.3345 16.3345C16.725 15.944 16.725 15.3108 16.3345 14.9203L2.19239 0.778174C1.80186 0.38765 1.1687 0.38765 0.778174 0.778174C0.387649 1.1687 0.387649 1.80186 0.778174 2.19239L14.9203 16.3345C15.3108 16.725 15.944 16.725 16.3345 16.3345Z" fill="#D9D9D9"/>
<path d="M0.292893 15.8492C-0.0976311 15.4587 -0.0976311 14.8256 0.292893 14.435L14.435 0.292893C14.8256 -0.0976309 15.4587 -0.0976312 15.8492 0.292893C16.2398 0.683417 16.2398 1.31658 15.8492 1.70711L1.70711 15.8492C1.31658 16.2398 0.683417 16.2398 0.292893 15.8492Z" fill="#D9D9D9"/>
</svg>
