<svg width="20" height="21" viewBox="0 0 20 21" fill="none" xmlns="http://www.w3.org/2000/svg">
<path d="M7.53133 5.97181L8.07217 6.94092C8.56025 7.81548 8.36434 8.96277 7.59558 9.7315C7.59558 9.7315 6.66323 10.664 8.35375 12.3546C10.0438 14.0446 10.9768 13.1128 10.9768 13.1128C11.7456 12.344 12.8928 12.1481 13.7674 12.6362L14.7365 13.177C16.0572 13.914 16.2131 15.766 15.0523 16.9268C14.3548 17.6243 13.5003 18.1671 12.5558 18.2028C10.9657 18.2632 8.26525 17.8608 5.55642 15.1519C2.84761 12.4431 2.44518 9.74268 2.50546 8.15258C2.54127 7.208 3.084 6.35353 3.78151 5.65603C4.9423 4.49523 6.79431 4.6512 7.53133 5.97181Z" fill="white"/>
<path d="M10.2169 3.10811C10.2721 2.76737 10.5941 2.53623 10.9349 2.59139C10.956 2.59543 11.0239 2.60811 11.0594 2.61603C11.1306 2.63187 11.2297 2.65625 11.3534 2.69227C11.6007 2.7643 11.9462 2.88298 12.3609 3.07309C13.1911 3.45372 14.296 4.11955 15.4425 5.26605C16.589 6.41255 17.2548 7.5174 17.6354 8.34763C17.8256 8.76231 17.9442 9.10781 18.0162 9.35513C18.0522 9.4788 18.0766 9.57799 18.0925 9.6491C18.1004 9.68465 18.1062 9.7132 18.1102 9.7343L18.1151 9.76029C18.1701 10.101 17.9411 10.4365 17.6004 10.4917C17.2606 10.5467 16.9406 10.3166 16.8841 9.9775C16.8823 9.96834 16.8775 9.94392 16.8724 9.92084C16.8621 9.87467 16.8443 9.80149 16.8161 9.70469C16.7597 9.51108 16.6618 9.2233 16.4991 8.86857C16.1743 8.15998 15.5901 7.1815 14.5586 6.14994C13.5271 5.11839 12.5486 4.53423 11.84 4.20937C11.4852 4.04674 11.1975 3.9488 11.0038 3.8924C10.9071 3.8642 10.7854 3.83628 10.7392 3.826C10.4001 3.76948 10.1619 3.44788 10.2169 3.10811Z" fill="white"/>
<path fill-rule="evenodd" clip-rule="evenodd" d="M10.4051 5.98276C10.4999 5.65086 10.8458 5.45868 11.1777 5.5535L11.0061 6.15446C11.1777 5.5535 11.1777 5.5535 11.1777 5.5535L11.179 5.55385L11.1802 5.55422L11.183 5.55503L11.1895 5.55696L11.206 5.5621C11.2185 5.56611 11.2342 5.57135 11.2529 5.57799C11.2903 5.59127 11.3398 5.61015 11.4005 5.63615C11.5219 5.68819 11.6877 5.76854 11.8916 5.88913C12.2994 6.13053 12.8562 6.53151 13.5104 7.18565C14.1646 7.8398 14.5655 8.39662 14.8069 8.80451C14.9275 9.00827 15.0078 9.17415 15.0599 9.29556C15.0859 9.35623 15.1048 9.4057 15.1181 9.44312C15.1247 9.46183 15.1299 9.47752 15.134 9.49009L15.1391 9.50658L15.141 9.51304L15.1418 9.51581L15.1421 9.5171C15.1421 9.5171 15.1426 9.5183 14.5416 9.69L15.1426 9.5183C15.2374 9.85019 15.0451 10.1961 14.7133 10.2909C14.3842 10.3849 14.0413 10.1968 13.9431 9.87012L13.94 9.86114C13.9356 9.84861 13.9264 9.82396 13.911 9.78796C13.8801 9.71601 13.8242 9.59832 13.7312 9.44116C13.5454 9.12721 13.2098 8.65284 12.6265 8.06954C12.0432 7.48625 11.5688 7.15066 11.2549 6.96485C11.0977 6.87184 10.9801 6.81592 10.9081 6.78509C10.8721 6.76966 10.8474 6.76046 10.8349 6.75602L10.8259 6.75295C10.4992 6.65471 10.3111 6.31184 10.4051 5.98276Z" fill="white"/>
</svg>
