<svg width="20" height="20" viewBox="0 0 20 20" fill="none" xmlns="http://www.w3.org/2000/svg">
<g clip-path="url(#clip0_2001_444)">
<path d="M17 0H3C1.34315 0 0 1.34315 0 3V17C0 18.6569 1.34315 20 3 20H17C18.6569 20 20 18.6569 20 17V3C20 1.34315 18.6569 0 17 0Z" fill="#B69045"/>
<path d="M4.80472 15.3518L5.35159 12.8127C4.6487 11.7041 4.3745 10.377 4.58044 9.08058C4.78637 7.78414 5.4583 6.60739 6.47014 5.77112C7.48198 4.93484 8.7642 4.49652 10.0762 4.53839C11.3883 4.58026 12.6399 5.09943 13.5964 5.99851C14.5529 6.89759 15.1484 8.11479 15.2713 9.42172C15.3941 10.7287 15.0359 12.0355 14.2637 13.0971C13.4916 14.1587 12.3586 14.9021 11.0774 15.1877C9.79614 15.4734 8.45469 15.2817 7.30472 14.6487L4.80472 15.3518Z" fill="#131314" stroke="#B69045" stroke-width="1.01562"/>
<path d="M12.031 10.6639C11.9138 10.5858 11.7967 10.5467 11.6795 10.703L11.2107 11.328C11.0935 11.4061 11.0154 11.4452 10.8592 11.367C10.2732 11.0545 9.4529 10.703 8.74978 9.5311C8.71071 9.37485 8.78884 9.29673 8.86696 9.2186L9.21853 8.67173C9.29665 8.5936 9.25759 8.51548 9.21853 8.43735L8.74978 7.30454C8.63259 6.99204 8.5154 7.0311 8.39821 7.0311H8.08571C8.00759 7.0311 7.85134 7.07017 7.69509 7.22642C6.83571 8.08579 7.18728 9.29673 7.81228 10.078C7.92946 10.2342 8.71071 11.6405 10.3904 12.3827C11.6404 12.9295 11.9138 12.8514 12.2654 12.7733C12.6951 12.7342 13.1248 12.3827 13.3201 12.0311C13.3592 11.9139 13.5545 11.4061 13.3982 11.328" fill="#B69045"/>
</g>
<defs>
<clipPath id="clip0_2001_444">
<rect width="20" height="20" fill="white"/>
</clipPath>
</defs>
</svg>
