<svg width="20" height="20" viewBox="0 0 20 20" fill="none" xmlns="http://www.w3.org/2000/svg">
<g clip-path="url(#clip0_2001_438)">
<path d="M8.66797 11.9258L11.9414 10.0039L8.66797 8.08203V11.9258Z" fill="#B69045"/>
<path d="M18.4375 0H1.5625C0.699219 0 0 0.699219 0 1.5625V18.4375C0 19.3008 0.699219 20 1.5625 20H18.4375C19.3008 20 20 19.3008 20 18.4375V1.5625C20 0.699219 19.3008 0 18.4375 0ZM15 11.7891C15 13.5117 13.2773 13.5117 13.2773 13.5117H6.72266C5 13.5117 5 11.7891 5 11.7891V8.21484C5 6.49219 6.72266 6.49219 6.72266 6.49219H13.2773C15 6.49219 15 8.21484 15 8.21484V11.7891Z" fill="#B69045"/>
</g>
<defs>
<clipPath id="clip0_2001_438">
<rect width="20" height="20" fill="white"/>
</clipPath>
</defs>
</svg>
