<svg width="94" height="18" viewBox="0 0 94 18" fill="none" xmlns="http://www.w3.org/2000/svg">
<path d="M8.33816 17.3301C6.75416 17.3301 5.38649 16.9854 4.23516 16.2961C3.09116 15.6067 2.20749 14.6424 1.58416 13.4031C0.968156 12.1637 0.660156 10.7227 0.660156 9.08008C0.660156 7.43741 0.968156 5.99641 1.58416 4.75708C2.20749 3.51774 3.09116 2.55341 4.23516 1.86408C5.38649 1.17474 6.75416 0.830078 8.33816 0.830078C10.1568 0.830078 11.6822 1.28108 12.9142 2.18308C14.1535 3.08508 15.0262 4.30608 15.5322 5.84608L12.5182 6.68208C12.2248 5.72141 11.7298 4.97708 11.0332 4.44908C10.3365 3.91374 9.43816 3.64608 8.33816 3.64608C7.33349 3.64608 6.49382 3.86974 5.81916 4.31708C5.15182 4.76441 4.64949 5.39508 4.31216 6.20908C3.97482 7.02308 3.80616 7.98008 3.80616 9.08008C3.80616 10.1801 3.97482 11.1371 4.31216 11.9511C4.64949 12.7651 5.15182 13.3957 5.81916 13.8431C6.49382 14.2904 7.33349 14.5141 8.33816 14.5141C9.43816 14.5141 10.3365 14.2464 11.0332 13.7111C11.7298 13.1757 12.2248 12.4314 12.5182 11.4781L15.5322 12.3141C15.0262 13.8541 14.1535 15.0751 12.9142 15.9771C11.6822 16.8791 10.1568 17.3301 8.33816 17.3301Z" fill="white"/>
<path d="M17.7342 17.0001V1.16008H20.7262V14.2061H27.5462V17.0001H17.7342Z" fill="white"/>
<path d="M35.4226 17.3301C34.1466 17.3301 33.0246 17.0734 32.0566 16.5601C31.0886 16.0394 30.3332 15.3097 29.7906 14.3711C29.2479 13.4324 28.9766 12.3287 28.9766 11.0601V1.18208L32.0126 1.16008V11.0381C32.0126 11.5587 32.1006 12.0317 32.2766 12.4571C32.4526 12.8824 32.6946 13.2491 33.0026 13.5571C33.3179 13.8651 33.6809 14.1034 34.0916 14.2721C34.5096 14.4334 34.9532 14.5141 35.4226 14.5141C35.9066 14.5141 36.3539 14.4297 36.7646 14.2611C37.1826 14.0924 37.5456 13.8541 37.8536 13.5461C38.1616 13.2381 38.3999 12.8714 38.5686 12.4461C38.7446 12.0207 38.8326 11.5514 38.8326 11.0381V1.16008H41.8686V11.0601C41.8686 12.3287 41.5972 13.4324 41.0546 14.3711C40.5119 15.3097 39.7566 16.0394 38.7886 16.5601C37.8206 17.0734 36.6986 17.3301 35.4226 17.3301Z" fill="white"/>
<path d="M44.4995 17.0001V1.16008H50.8355C51.9648 1.16008 52.8778 1.38741 53.5745 1.84208C54.2711 2.28941 54.7808 2.85408 55.1035 3.53608C55.4261 4.21808 55.5875 4.90741 55.5875 5.60408C55.5875 6.49141 55.3858 7.22841 54.9825 7.81508C54.5865 8.40174 54.0401 8.79408 53.3435 8.99208V8.44208C54.3335 8.64741 55.0741 9.10574 55.5655 9.81708C56.0641 10.5284 56.3135 11.3241 56.3135 12.2041C56.3135 13.1501 56.1375 13.9824 55.7855 14.7011C55.4408 15.4197 54.9128 15.9844 54.2015 16.3951C53.4901 16.7984 52.5955 17.0001 51.5175 17.0001H44.4995ZM47.5355 14.1841H51.2095C51.6128 14.1841 51.9721 14.0997 52.2875 13.9311C52.6028 13.7551 52.8485 13.5131 53.0245 13.2051C53.2078 12.8897 53.2995 12.5194 53.2995 12.0941C53.2995 11.7201 53.2225 11.3864 53.0685 11.0931C52.9145 10.7997 52.6798 10.5687 52.3645 10.4001C52.0565 10.2241 51.6715 10.1361 51.2095 10.1361H47.5355V14.1841ZM47.5355 7.34208H50.7915C51.1288 7.34208 51.4295 7.28341 51.6935 7.16608C51.9575 7.04874 52.1665 6.86908 52.3205 6.62708C52.4745 6.37774 52.5515 6.05874 52.5515 5.67008C52.5515 5.18608 52.4011 4.77908 52.1005 4.44908C51.7998 4.11908 51.3635 3.95408 50.7915 3.95408H47.5355V7.34208Z" fill="white"/>
<path d="M64.7816 17.0001V4.41608L61.8116 6.24208V2.94208L64.7816 1.16008H67.8396V17.0001H64.7816Z" fill="#B69045"/>
<path d="M72.3738 17.0001L77.6978 3.97608H70.9218V1.16008H80.9098V3.97608L75.6078 17.0001H72.3738Z" fill="#B69045"/>
<path d="M88.4106 17.3301C87.3399 17.3301 86.3866 17.1137 85.5506 16.6811C84.7219 16.2411 84.0693 15.6397 83.5926 14.8771C83.1233 14.1071 82.8886 13.2307 82.8886 12.2481C82.8886 11.4121 83.0756 10.6237 83.4496 9.88308C83.8309 9.14241 84.3773 8.53741 85.0886 8.06808L85.0226 8.99208C84.4873 8.47141 84.0656 7.92141 83.7576 7.34208C83.4569 6.76274 83.3066 6.11008 83.3066 5.38408C83.3066 4.46741 83.5229 3.66808 83.9556 2.98608C84.3956 2.30408 84.9969 1.77608 85.7596 1.40208C86.5296 1.02074 87.4133 0.830078 88.4106 0.830078C89.4079 0.830078 90.2879 1.02074 91.0506 1.40208C91.8206 1.77608 92.4219 2.30408 92.8546 2.98608C93.2946 3.66808 93.5146 4.46741 93.5146 5.38408C93.5146 6.11008 93.3716 6.76274 93.0856 7.34208C92.7996 7.91408 92.3633 8.47141 91.7766 9.01408V8.09008C92.4733 8.53008 93.0086 9.12408 93.3826 9.87208C93.7639 10.6201 93.9546 11.4121 93.9546 12.2481C93.9546 13.2307 93.7163 14.1071 93.2396 14.8771C92.7629 15.6397 92.1066 16.2411 91.2706 16.6811C90.4346 17.1137 89.4813 17.3301 88.4106 17.3301ZM88.4106 14.5141C89.1146 14.5141 89.6866 14.3234 90.1266 13.9421C90.5666 13.5607 90.7866 12.9961 90.7866 12.2481C90.7866 11.5074 90.5666 10.9427 90.1266 10.5541C89.6866 10.1581 89.1146 9.96008 88.4106 9.96008C87.7066 9.96008 87.1383 10.1581 86.7056 10.5541C86.2729 10.9427 86.0566 11.5074 86.0566 12.2481C86.0566 12.9961 86.2729 13.5607 86.7056 13.9421C87.1383 14.3234 87.7066 14.5141 88.4106 14.5141ZM88.4106 7.12208C88.9826 7.12208 89.4483 6.98274 89.8076 6.70408C90.1669 6.41808 90.3466 5.97808 90.3466 5.38408C90.3466 4.79008 90.1669 4.35008 89.8076 4.06408C89.4483 3.77074 88.9826 3.62408 88.4106 3.62408C87.8386 3.62408 87.3729 3.77074 87.0136 4.06408C86.6543 4.35008 86.4746 4.79008 86.4746 5.38408C86.4746 5.97808 86.6543 6.41808 87.0136 6.70408C87.3729 6.98274 87.8386 7.12208 88.4106 7.12208Z" fill="#B69045"/>
</svg>
